<svg width="220" height="164" viewBox="0 0 220 164" fill="none" xmlns="http://www.w3.org/2000/svg">
<path d="M4.22402 158.096C3.39202 158.096 2.59202 157.963 1.82402 157.696C1.06669 157.429 0.480019 157.077 0.0640194 156.64L0.528019 155.728C0.933353 156.133 1.47202 156.464 2.14402 156.72C2.81602 156.965 3.50935 157.088 4.22402 157.088C5.22669 157.088 5.97869 156.907 6.48002 156.544C6.98135 156.171 7.23202 155.691 7.23202 155.104C7.23202 154.656 7.09335 154.299 6.81602 154.032C6.54935 153.765 6.21869 153.563 5.82402 153.424C5.42935 153.275 4.88002 153.115 4.17602 152.944C3.33335 152.731 2.66135 152.528 2.16002 152.336C1.65869 152.133 1.22669 151.829 0.864019 151.424C0.512019 151.019 0.336019 150.469 0.336019 149.776C0.336019 149.211 0.485353 148.699 0.784019 148.24C1.08269 147.771 1.54135 147.397 2.16002 147.12C2.77869 146.843 3.54669 146.704 4.46402 146.704C5.10402 146.704 5.72802 146.795 6.33602 146.976C6.95469 147.147 7.48802 147.387 7.93602 147.696L7.53602 148.64C7.06669 148.331 6.56535 148.101 6.03202 147.952C5.49869 147.792 4.97602 147.712 4.46402 147.712C3.48269 147.712 2.74135 147.904 2.24002 148.288C1.74935 148.661 1.50402 149.147 1.50402 149.744C1.50402 150.192 1.63735 150.555 1.90402 150.832C2.18135 151.099 2.52269 151.307 2.92802 151.456C3.34402 151.595 3.89869 151.749 4.59202 151.92C5.41335 152.123 6.07469 152.325 6.57602 152.528C7.08802 152.72 7.52002 153.019 7.87202 153.424C8.22402 153.819 8.40002 154.357 8.40002 155.04C8.40002 155.605 8.24535 156.123 7.93602 156.592C7.63735 157.051 7.17335 157.419 6.54402 157.696C5.91469 157.963 5.14135 158.096 4.22402 158.096ZM15.1656 147.824H11.2296V146.8H20.2856V147.824H16.3496V158H15.1656V147.824ZM28.105 154.128V158H26.937V154.128L22.457 146.8H23.721L27.561 153.088L31.401 146.8H32.585L28.105 154.128ZM36.353 146.8H37.537V156.976H43.809V158H36.353V146.8ZM55.8609 156.976V158H47.9409V146.8H55.6209V147.824H49.1249V151.808H54.9169V152.816H49.1249V156.976H55.8609ZM60.8101 146.8H65.3701C66.5541 146.8 67.5995 147.04 68.5061 147.52C69.4128 147.989 70.1168 148.651 70.6181 149.504C71.1195 150.347 71.3701 151.312 71.3701 152.4C71.3701 153.488 71.1195 154.459 70.6181 155.312C70.1168 156.155 69.4128 156.816 68.5061 157.296C67.5995 157.765 66.5541 158 65.3701 158H60.8101V146.8ZM65.3061 156.976C66.2875 156.976 67.1461 156.784 67.8821 156.4C68.6181 156.005 69.1888 155.467 69.5941 154.784C69.9995 154.091 70.2021 153.296 70.2021 152.4C70.2021 151.504 69.9995 150.715 69.5941 150.032C69.1888 149.339 68.6181 148.8 67.8821 148.416C67.1461 148.021 66.2875 147.824 65.3061 147.824H61.9941V156.976H65.3061ZM87.4125 158.096C86.3032 158.096 85.3005 157.851 84.4045 157.36C83.5192 156.869 82.8205 156.192 82.3085 155.328C81.8072 154.453 81.5565 153.477 81.5565 152.4C81.5565 151.323 81.8072 150.352 82.3085 149.488C82.8205 148.613 83.5245 147.931 84.4205 147.44C85.3165 146.949 86.3192 146.704 87.4285 146.704C88.2605 146.704 89.0285 146.843 89.7325 147.12C90.4365 147.397 91.0339 147.803 91.5245 148.336L90.7725 149.088C89.8979 148.203 88.7939 147.76 87.4605 147.76C86.5752 147.76 85.7699 147.963 85.0445 148.368C84.3192 148.773 83.7485 149.328 83.3325 150.032C82.9272 150.736 82.7245 151.525 82.7245 152.4C82.7245 153.275 82.9272 154.064 83.3325 154.768C83.7485 155.472 84.3192 156.027 85.0445 156.432C85.7699 156.837 86.5752 157.04 87.4605 157.04C88.8045 157.04 89.9085 156.592 90.7725 155.696L91.5245 156.448C91.0339 156.981 90.4312 157.392 89.7165 157.68C89.0125 157.957 88.2445 158.096 87.4125 158.096ZM100.876 158.096C99.7669 158.096 98.7589 157.851 97.8523 157.36C96.9563 156.859 96.2523 156.176 95.7403 155.312C95.2389 154.448 94.9883 153.477 94.9883 152.4C94.9883 151.323 95.2389 150.352 95.7403 149.488C96.2523 148.624 96.9563 147.947 97.8523 147.456C98.7589 146.955 99.7669 146.704 100.876 146.704C101.986 146.704 102.983 146.949 103.868 147.44C104.764 147.931 105.468 148.613 105.98 149.488C106.492 150.352 106.748 151.323 106.748 152.4C106.748 153.477 106.492 154.453 105.98 155.328C105.468 156.192 104.764 156.869 103.868 157.36C102.983 157.851 101.986 158.096 100.876 158.096ZM100.876 157.04C101.762 157.04 102.562 156.843 103.276 156.448C103.991 156.043 104.551 155.488 104.956 154.784C105.362 154.069 105.564 153.275 105.564 152.4C105.564 151.525 105.362 150.736 104.956 150.032C104.551 149.317 103.991 148.763 103.276 148.368C102.562 147.963 101.762 147.76 100.876 147.76C99.9909 147.76 99.1856 147.963 98.4603 148.368C97.7456 148.763 97.1803 149.317 96.7643 150.032C96.3589 150.736 96.1562 151.525 96.1562 152.4C96.1562 153.275 96.3589 154.069 96.7643 154.784C97.1803 155.488 97.7456 156.043 98.4603 156.448C99.1856 156.843 99.9909 157.04 100.876 157.04ZM123.2 146.8V158H122.064V149.04L117.664 156.576H117.104L112.704 149.088V158H111.568V146.8H112.544L117.408 155.104L122.224 146.8H123.2ZM133.208 146.8C134.637 146.8 135.757 147.141 136.568 147.824C137.378 148.507 137.784 149.445 137.784 150.64C137.784 151.835 137.378 152.773 136.568 153.456C135.757 154.128 134.637 154.464 133.208 154.464H130.2V158H129.016V146.8H133.208ZM133.176 153.424C134.285 153.424 135.133 153.184 135.72 152.704C136.306 152.213 136.6 151.525 136.6 150.64C136.6 149.733 136.306 149.04 135.72 148.56C135.133 148.069 134.285 147.824 133.176 147.824H130.2V153.424H133.176ZM147.562 158.096C146.453 158.096 145.445 157.851 144.538 157.36C143.642 156.859 142.938 156.176 142.426 155.312C141.925 154.448 141.674 153.477 141.674 152.4C141.674 151.323 141.925 150.352 142.426 149.488C142.938 148.624 143.642 147.947 144.538 147.456C145.445 146.955 146.453 146.704 147.562 146.704C148.671 146.704 149.669 146.949 150.554 147.44C151.45 147.931 152.154 148.613 152.666 149.488C153.178 150.352 153.434 151.323 153.434 152.4C153.434 153.477 153.178 154.453 152.666 155.328C152.154 156.192 151.45 156.869 150.554 157.36C149.669 157.851 148.671 158.096 147.562 158.096ZM147.562 157.04C148.447 157.04 149.247 156.843 149.962 156.448C150.677 156.043 151.237 155.488 151.642 154.784C152.047 154.069 152.25 153.275 152.25 152.4C152.25 151.525 152.047 150.736 151.642 150.032C151.237 149.317 150.677 148.763 149.962 148.368C149.247 147.963 148.447 147.76 147.562 147.76C146.677 147.76 145.871 147.963 145.146 148.368C144.431 148.763 143.866 149.317 143.45 150.032C143.045 150.736 142.842 151.525 142.842 152.4C142.842 153.275 143.045 154.069 143.45 154.784C143.866 155.488 144.431 156.043 145.146 156.448C145.871 156.843 146.677 157.04 147.562 157.04ZM167.614 146.8V158H166.638L159.438 148.912V158H158.254V146.8H159.23L166.446 155.888V146.8H167.614ZM181.356 156.976V158H173.436V146.8H181.116V147.824H174.62V151.808H180.412V152.816H174.62V156.976H181.356ZM195.665 146.8V158H194.689L187.489 148.912V158H186.305V146.8H187.281L194.497 155.888V146.8H195.665ZM203.663 147.824H199.727V146.8H208.783V147.824H204.847V158H203.663V147.824ZM215.756 158.096C214.924 158.096 214.124 157.963 213.356 157.696C212.599 157.429 212.012 157.077 211.596 156.64L212.06 155.728C212.466 156.133 213.004 156.464 213.676 156.72C214.348 156.965 215.042 157.088 215.756 157.088C216.759 157.088 217.511 156.907 218.012 156.544C218.514 156.171 218.764 155.691 218.764 155.104C218.764 154.656 218.626 154.299 218.348 154.032C218.082 153.765 217.751 153.563 217.356 153.424C216.962 153.275 216.412 153.115 215.708 152.944C214.866 152.731 214.194 152.528 213.692 152.336C213.191 152.133 212.759 151.829 212.396 151.424C212.044 151.019 211.868 150.469 211.868 149.776C211.868 149.211 212.018 148.699 212.316 148.24C212.615 147.771 213.074 147.397 213.692 147.12C214.311 146.843 215.079 146.704 215.996 146.704C216.636 146.704 217.26 146.795 217.868 146.976C218.487 147.147 219.02 147.387 219.468 147.696L219.068 148.64C218.599 148.331 218.098 148.101 217.564 147.952C217.031 147.792 216.508 147.712 215.996 147.712C215.015 147.712 214.274 147.904 213.772 148.288C213.282 148.661 213.036 149.147 213.036 149.744C213.036 150.192 213.17 150.555 213.436 150.832C213.714 151.099 214.055 151.307 214.46 151.456C214.876 151.595 215.431 151.749 216.124 151.92C216.946 152.123 217.607 152.325 218.108 152.528C218.62 152.72 219.052 153.019 219.404 153.424C219.756 153.819 219.932 154.357 219.932 155.04C219.932 155.605 219.778 156.123 219.468 156.592C219.17 157.051 218.706 157.419 218.076 157.696C217.447 157.963 216.674 158.096 215.756 158.096Z" fill="#BDEBEA"/>
<path d="M119.767 118.279C119.947 117.872 120.402 117.589 120.731 117.246C125.767 111.967 130.845 106.735 135.811 101.391C137.365 99.9558 138.566 98.1804 139.32 96.2036C140.074 94.2269 140.36 92.1026 140.156 89.9968C140 89.0951 139.796 88.2025 139.544 87.3229C138.189 88.6084 136.93 89.7783 135.661 90.9567C133.69 92.7908 131.727 94.6334 129.739 96.4461C128.567 97.6415 127.059 98.4531 125.416 98.7737C123.772 99.0943 122.07 98.9087 120.534 98.2416C118.98 97.6705 117.627 96.6553 116.644 95.3221C115.662 93.9889 115.092 92.3965 115.006 90.7425C114.96 90.5297 114.899 90.3206 114.822 90.1168C113.309 91.4024 111.861 92.5851 110.426 93.8021L80.5877 119.085C80.382 119.261 80.1591 119.479 79.9663 119.65H119.746L119.686 119.612C119.472 119.462 119.583 118.673 119.767 118.279Z" fill="#FFCEBF"/>
<path d="M78.1434 118.279C78.4972 117.818 78.9243 117.418 79.4075 117.096L120.7 82.0642C123.517 79.6731 126.321 77.2691 129.112 74.8522C129.456 74.6118 129.727 74.2791 129.892 73.8924C130.559 70.9831 130.654 67.9717 130.17 65.0263C129.742 65.3262 129.51 65.4548 129.313 65.6648C125.932 68.6901 122.568 71.7412 119.17 74.7494C118.044 75.8824 116.588 76.6292 115.011 76.8825C113.434 77.1359 111.818 76.8826 110.394 76.1592C108.941 75.4734 107.725 74.3709 106.901 72.992C106.077 71.6131 105.682 70.0201 105.766 68.4159V67.0275C105.144 67.4817 104.69 67.7859 104.266 68.1287C87.7394 81.3615 71.2156 94.5842 54.6947 107.797C53.9491 108.393 53.0578 109.721 52.0807 108.431C51.1037 107.141 52.5907 106.61 53.3406 106.01C70.9528 91.8774 88.5736 77.7576 106.203 63.6507C109.074 61.3496 109.263 60.3854 107.394 56.7301L106.28 57.7757C103.225 60.6168 100.135 63.4193 97.1268 66.3075C95.8929 67.4978 94.3474 68.3148 92.6689 68.6641C90.9904 69.0135 89.2473 68.8809 87.6409 68.2818C86.0345 67.6827 84.6304 66.6415 83.5905 65.2784C82.5507 63.9153 81.9176 62.2858 81.7644 60.5782C81.1944 61.0067 80.7016 61.3196 80.2345 61.6838L54.0948 81.9443C53.6439 82.3864 53.1298 82.7591 52.5693 83.0498C52.1462 83.1777 51.6919 83.155 51.2837 82.9856V119.671H78.0919C77.9923 119.451 77.945 119.21 77.954 118.969C77.9629 118.727 78.0277 118.491 78.1434 118.279Z" fill="#FFCEBF"/>
<path d="M150.565 1.82096C149.837 4.20782 149.13 6.59897 148.491 9.01154C147.901 10.7164 147.97 12.5802 148.684 14.2371C149.397 15.8941 150.704 17.2246 152.348 17.9676C157.376 20.6107 163.042 21.798 168.709 21.3958V2.22806C168.646 1.80781 168.669 1.37914 168.777 0.968207C168.897 0.73576 169.049 0.520916 169.227 0.329712H150.548C150.835 0.663958 150.737 1.25103 150.565 1.82096Z" fill="#FF6196"/>
<path d="M113.051 42.9976C112.962 45.137 112.214 47.1966 110.909 48.894C106.242 54.9179 100.883 60.3719 94.9419 65.1435C93.9839 66.0304 92.7695 66.591 91.4731 66.745C90.1767 66.8989 88.8648 66.6383 87.7256 66.0005C86.5918 65.5161 85.6358 64.6925 84.989 63.6428C84.3421 62.5932 84.0362 61.369 84.1132 60.1384C84.2505 58.627 84.878 57.202 85.9002 56.0803C92.5437 49.7455 99.7416 44.019 107.408 38.9695C107.91 38.5758 108.523 38.3499 109.16 38.3237C109.798 38.2976 110.427 38.4725 110.96 38.8238C111.66 39.2585 112.226 39.8786 112.595 40.6153C112.964 41.352 113.122 42.1766 113.051 42.9976Z" fill="#FF87AF"/>
<path d="M107.913 68.97C107.813 68.0228 107.935 67.0654 108.268 66.1731C108.601 65.2809 109.136 64.478 109.832 63.8277C116.337 57.8281 123.316 52.3638 130.701 47.4883C130.924 47.3468 131.13 47.2054 131.374 47.0597C132.019 46.594 132.801 46.356 133.596 46.3832C134.391 46.4103 135.155 46.7011 135.766 47.2097C136.358 47.7112 136.777 48.3865 136.963 49.1396C137.15 49.8928 137.094 50.6854 136.803 51.4049C135.869 54.5168 134.145 57.3337 131.798 59.5811C127.033 64.2758 122.175 68.8762 117.229 73.3795C116.484 74.1456 115.505 74.6422 114.447 74.7911C113.389 74.9401 112.311 74.7329 111.384 74.2022C110.409 73.6958 109.579 72.9499 108.972 72.0347C108.365 71.1194 108 70.0648 107.913 68.97Z" fill="#FF87AF"/>
<path d="M138.834 71.8015C137.635 73.0871 136.4 74.3126 135.248 75.6282C134.901 76.1367 134.614 76.683 134.391 77.2566C135.025 77.4451 135.766 77.9422 136.28 77.7665C138.899 76.888 141.453 75.8339 144.328 74.724C143.702 76.1638 143.231 77.4922 142.567 78.7092C139.831 83.3078 136.404 87.4587 132.407 91.0164C130.887 92.4819 129.308 93.8832 127.671 95.2201C126.805 95.9395 125.762 96.4157 124.651 96.6001C123.54 96.7844 122.399 96.6702 121.347 96.2692C120.294 95.8681 119.367 95.1947 118.66 94.3176C117.953 93.4406 117.491 92.3916 117.323 91.2778C117.254 90.6585 117.309 90.0317 117.484 89.4337C117.659 88.8357 117.951 88.2784 118.343 87.7939C124.174 81.4614 130.838 75.9503 138.153 71.4115C138.242 71.3771 138.336 71.3582 138.432 71.3558L138.834 71.8015Z" fill="#FF87AF"/>
<path d="M148.672 54.7335L156.004 22.1659L161.147 23.37L158.494 31.4305C156.017 38.9296 153.51 46.4287 151.093 53.9364C150.622 55.3248 150.005 55.5819 148.672 54.7335Z" fill="#FF6196"/>
<path d="M140.386 73.8885C141.161 70.9274 141.933 68.1892 142.584 65.421C143.219 62.7364 144.426 60.2207 146.124 58.0461C147.165 56.6791 148.335 57.2234 149.53 57.519C150.636 57.789 150.914 58.5989 150.962 59.6616C151.136 62.6005 150.241 65.5031 148.442 67.8335C146.3 70.4887 143.532 72.5695 140.386 73.8885Z" fill="#FF6196"/>
<path d="M170.944 3.83936C171.008 2.88498 170.983 1.92674 170.871 0.976845C170.783 0.711516 170.607 0.483621 170.374 0.329779C170.184 0.175101 169.961 0.0652523 169.723 0.00838844C169.585 -0.0173228 169.393 0.124089 169.208 0.325493C169.03 0.516698 168.878 0.731542 168.758 0.96399C168.65 1.37492 168.627 1.80359 168.69 2.22384V21.3873C163.023 21.7895 157.357 20.6022 152.329 17.9591C150.685 17.2161 149.378 15.8856 148.665 14.2286C147.951 12.5717 147.882 10.7079 148.472 9.00304C149.111 6.59046 149.818 4.19932 150.546 1.81246C150.718 1.24253 150.816 0.655454 150.546 0.321208C150.396 0.158494 150.189 0.0602123 149.968 0.0469556C149.685 0.0500088 149.411 0.146413 149.188 0.321208C148.867 0.512888 148.612 0.796593 148.455 1.1354C147.598 3.70652 146.844 6.30336 146.188 8.9259C145.941 9.95936 145.874 11.0279 145.991 12.0841C146.157 13.9952 146.868 15.8186 148.039 17.3377C149.21 18.8569 150.793 20.0081 152.599 20.6545C153.409 20.993 153.884 21.3273 153.657 22.3943C153.344 23.7484 153.04 25.1026 152.732 26.461C150.632 35.6656 148.544 44.8745 146.467 54.0877C146.408 54.4985 146.228 54.8822 145.948 55.189C144.579 56.2771 143.429 57.6148 142.559 59.1314C141.449 61.1327 140.682 63.3052 140.287 65.5592C140.212 66.2782 139.952 66.9655 139.533 67.5548C139.114 68.144 138.55 68.6153 137.896 68.9231C136.109 69.8273 134.468 70.9971 132.484 72.2141C132.616 69.8282 132.591 67.4361 132.407 65.0535C132.256 64.3206 132.288 63.5618 132.5 62.8442C132.713 62.1267 133.099 61.4725 133.624 60.9397C136.238 58.3506 138.1 55.1015 139.015 51.538C139.288 50.712 139.363 49.8333 139.233 48.9729C139.104 48.1126 138.774 47.2948 138.27 46.5856C137.766 45.8764 137.102 45.2957 136.332 44.8905C135.563 44.4853 134.708 44.267 133.838 44.2531C132.43 44.2374 131.047 44.6304 129.857 45.3844C125.768 48.1767 121.75 51.0715 117.807 54.0663C115.463 55.8318 113.256 57.7858 110.985 59.637C110.887 59.5319 110.802 59.4154 110.732 59.2899C110.689 58.9744 110.604 58.6661 110.48 58.3729C108.581 55.4418 109.897 53.3121 111.958 51.1223C114.105 48.8714 115.292 45.8727 115.266 42.7619C115.333 41.1769 114.836 39.6194 113.865 38.3653C113.347 37.7286 112.71 37.2001 111.988 36.8097C110.963 36.2487 109.791 36.0145 108.629 36.1386C107.467 36.2627 106.371 36.7391 105.487 37.5039L104.292 38.361C101.562 40.315 98.7981 42.2177 96.1713 44.3089C92.3364 47.3705 88.5841 50.5341 84.9183 53.7963C83.2042 55.309 81.953 57.3744 80.1746 58.78C70.9014 66.1034 61.5297 73.294 52.1922 80.5317C51.8711 80.7232 51.5759 80.9551 51.3137 81.2216C51.2867 81.2606 51.2638 81.3023 51.2452 81.3459C51.0481 81.8044 50.8809 82.5629 51.1123 82.8414C51.1691 82.9019 51.2376 82.95 51.3137 82.9828C51.7219 83.1523 52.1762 83.175 52.5993 83.0471C53.1598 82.7563 53.674 82.3837 54.1248 81.9415L80.2646 61.6811C80.7317 61.3168 81.2245 60.9869 81.7944 60.5755C81.9476 62.2831 82.5807 63.9125 83.6206 65.2757C84.6604 66.6388 86.0646 67.68 87.671 68.2791C89.2774 68.8782 91.0204 69.0107 92.6989 68.6614C94.3774 68.312 95.9229 67.4951 97.1569 66.3048C100.157 63.4166 103.255 60.6141 106.31 57.773L107.424 56.7274C109.293 60.3827 109.104 61.3468 106.233 63.648C88.5893 77.7663 70.9585 91.8875 53.3406 106.012C52.5907 106.611 51.108 107.156 52.0808 108.433C53.0535 109.71 53.9491 108.394 54.6948 107.798C71.2242 94.5972 87.7423 81.3787 104.249 68.1432C104.677 67.8003 105.127 67.4961 105.749 67.0419V68.4303C105.665 70.0345 106.06 71.6275 106.884 73.0064C107.708 74.3853 108.924 75.4879 110.377 76.1736C111.801 76.897 113.417 77.1503 114.994 76.897C116.571 76.6436 118.027 75.8968 119.153 74.7638C122.551 71.7642 125.915 68.7045 129.296 65.6792C129.51 65.4863 129.759 65.3406 130.153 65.0407C130.637 67.9861 130.542 70.9975 129.874 73.9068C129.71 74.2936 129.439 74.6262 129.095 74.8667C126.301 77.2807 123.497 79.6847 120.683 82.0787L79.4075 117.115C78.9243 117.437 78.4972 117.836 78.1434 118.297C78.0305 118.507 77.9672 118.741 77.9582 118.979C77.9493 119.217 77.9951 119.455 78.092 119.673C78.2856 119.818 78.5094 119.917 78.7468 119.964C78.9842 120.011 79.2291 120.004 79.4633 119.943C79.648 119.889 79.8181 119.794 79.9603 119.664C80.1746 119.493 80.3889 119.274 80.5817 119.099L110.42 93.8158C111.855 92.5988 113.304 91.399 114.816 90.1306C114.893 90.3343 114.954 90.5434 115 90.7562C115.086 92.4102 115.656 94.0027 116.638 95.3358C117.621 96.669 118.974 97.6842 120.528 98.2553C122.064 98.9225 123.766 99.108 125.41 98.7874C127.053 98.4669 128.561 97.6552 129.733 96.4598C131.721 94.6472 133.684 92.8045 135.655 90.9705C136.941 89.792 138.183 88.6093 139.538 87.3366C139.79 88.2162 139.994 89.1089 140.15 90.0106C140.347 92.1094 140.058 94.2253 139.304 96.1941C138.551 98.1628 137.353 99.9313 135.805 101.362C130.839 106.71 125.761 111.942 120.726 117.217C120.396 117.56 119.941 117.843 119.761 118.25C119.581 118.657 119.466 119.454 119.68 119.626L119.74 119.664C120.189 119.883 120.695 119.959 121.188 119.883C121.327 119.854 121.45 119.777 121.535 119.664C121.655 119.54 121.771 119.386 121.887 119.27C125.966 115.053 130.067 110.858 134.117 106.611C135.751 104.955 137.288 103.205 138.719 101.371C140.585 99.3049 141.822 96.7492 142.285 94.0042C142.749 91.2591 142.418 88.439 141.333 85.8754C141.216 85.3037 141.33 84.7092 141.65 84.2213C141.929 83.7413 142.237 83.2742 142.554 82.8114C143.569 81.494 144.414 80.0544 145.07 78.5262C146.337 74.7758 148.282 71.2898 150.808 68.2417C151.969 66.7695 152.768 65.0448 153.14 63.207C153.512 61.3692 153.447 59.4696 152.95 57.6616C152.775 56.9741 152.775 56.2535 152.95 55.5661C155.119 48.8512 157.351 42.1577 159.562 35.4599L162.519 26.4867L163.432 23.7142C165.377 23.7142 167.211 23.6756 169.037 23.7142C170.554 23.757 171.017 23.0457 171 21.5715C170.91 15.658 170.944 9.74866 170.944 3.83936ZM94.9371 65.1435C93.9791 66.0304 92.7647 66.591 91.4683 66.745C90.1719 66.8989 88.86 66.6383 87.7208 66.0006C86.587 65.5162 85.631 64.6925 84.9842 63.6429C84.3373 62.5932 84.0314 61.369 84.1084 60.1384C84.2457 58.6271 84.8732 57.202 85.8953 56.0803C92.5388 49.7455 99.7368 44.019 107.403 38.9695C107.821 38.6737 108.297 38.4693 108.8 38.3696C109.137 38.3074 109.483 38.3074 109.82 38.3696C110.223 38.4482 110.609 38.6023 110.955 38.8238C111.656 39.2588 112.222 39.8796 112.592 40.6171C112.961 41.3547 113.118 42.1802 113.046 43.0019C112.958 45.1413 112.209 47.2009 110.904 48.8983C106.237 54.9207 100.878 60.3733 94.9371 65.1435ZM117.22 73.4097C116.475 74.1758 115.497 74.6724 114.438 74.8213C113.38 74.9703 112.303 74.7631 111.375 74.2324C110.399 73.7249 109.568 72.977 108.961 72.0593C108.353 71.1416 107.99 70.0844 107.904 68.9874C107.805 68.0401 107.926 67.0828 108.259 66.1905C108.593 65.2982 109.128 64.4954 109.824 63.8451C116.329 57.8454 123.308 52.3811 130.693 47.5056C130.916 47.3642 131.121 47.2228 131.366 47.0771C132.011 46.6114 132.792 46.3734 133.587 46.4005C134.383 46.4277 135.146 46.7185 135.758 47.2271C136.35 47.7285 136.769 48.4038 136.955 49.157C137.141 49.9101 137.085 50.7028 136.795 51.4223C135.861 54.5342 134.136 57.351 131.79 59.5985C127.063 64.3208 122.148 68.8674 117.229 73.3925L117.22 73.4097ZM142.55 78.7276C139.818 83.319 136.397 87.4638 132.407 91.0176C130.887 92.4831 129.309 93.8844 127.672 95.2214C126.805 95.9408 125.763 96.417 124.651 96.6013C123.54 96.7856 122.4 96.6714 121.347 96.2704C120.294 95.8694 119.367 95.1959 118.66 94.3189C117.953 93.4419 117.492 92.3928 117.323 91.279C117.254 90.6597 117.309 90.0329 117.484 89.435C117.659 88.837 117.951 88.2796 118.343 87.7951C124.174 81.4627 130.839 75.9515 138.153 71.4128C138.242 71.3783 138.337 71.3594 138.432 71.3571L138.86 71.7856C137.661 73.0712 136.426 74.2967 135.274 75.6123C134.927 76.1208 134.64 76.6671 134.417 77.2407C135.051 77.4292 135.792 77.9263 136.307 77.7506C138.376 77.0564 140.412 76.2508 142.593 75.3937L144.354 74.7081C143.694 76.1651 143.223 77.4935 142.559 78.7105L142.55 78.7276ZM148.434 67.8646C146.835 69.8996 144.832 71.5806 142.55 72.8012C141.844 73.1954 141.12 73.564 140.377 73.9068C141.14 70.9885 141.903 68.2846 142.55 65.5506L142.576 65.4392C143.211 62.7546 144.418 60.2389 146.115 58.0644C147.157 56.6974 148.327 57.2416 149.522 57.5373C150.628 57.8073 150.906 58.6172 150.953 59.6799C151.129 62.6162 150.237 65.5171 148.442 67.8475L148.434 67.8646ZM158.461 31.4404C155.984 38.9395 153.477 46.4386 151.06 53.9463C150.606 55.3561 149.989 55.6132 148.656 54.7648L155.011 26.5124L155.988 22.1758L161.131 23.3799L160.098 26.5124L158.461 31.4404Z" fill="black"/>
</svg>
